<svg xmlns="http://www.w3.org/2000/svg" viewBox="0 0 200 200">
  <defs>
    <linearGradient id="grad" x1="0%" y1="0%" x2="100%" y2="100%">
      <stop offset="0%" style="stop-color:#ff6b35;stop-opacity:1" />
      <stop offset="100%" style="stop-color:#ff8151;stop-opacity:1" />
    </linearGradient>
  </defs>
  
  <!-- Brain icon representing study/learning -->
  <circle cx="100" cy="100" r="90" fill="url(#grad)" opacity="0.1"/>
  <path d="M 100 40 Q 140 50 150 80 Q 155 95 145 110 Q 135 120 130 130 Q 125 145 115 150 Q 105 155 100 155 Q 95 155 85 150 Q 75 145 70 130 Q 65 120 55 110 Q 45 95 50 80 Q 60 50 100 40 Z" 
        fill="url(#grad)" stroke="#ff6b35" stroke-width="3"/>
  
  <!-- Neural connections -->
  <circle cx="100" cy="70" r="6" fill="#ff6b35"/>
  <circle cx="80" cy="90" r="5" fill="#ff6b35"/>
  <circle cx="120" cy="90" r="5" fill="#ff6b35"/>
  <circle cx="90" cy="110" r="5" fill="#ff6b35"/>
  <circle cx="110" cy="110" r="5" fill="#ff6b35"/>
  <circle cx="100" cy="130" r="6" fill="#ff6b35"/>
  
  <!-- Connections -->
  <line x1="100" y1="70" x2="80" y2="90" stroke="#ff6b35" stroke-width="2" opacity="0.6"/>
  <line x1="100" y1="70" x2="120" y2="90" stroke="#ff6b35" stroke-width="2" opacity="0.6"/>
  <line x1="80" y1="90" x2="90" y2="110" stroke="#ff6b35" stroke-width="2" opacity="0.6"/>
  <line x1="120" y1="90" x2="110" y2="110" stroke="#ff6b35" stroke-width="2" opacity="0.6"/>
  <line x1="90" y1="110" x2="100" y2="130" stroke="#ff6b35" stroke-width="2" opacity="0.6"/>
  <line x1="110" y1="110" x2="100" y2="130" stroke="#ff6b35" stroke-width="2" opacity="0.6"/>
</svg>
