<?xml version="1.0" encoding="utf-8" standalone="no"?>
<!DOCTYPE svg PUBLIC "-//W3C//DTD SVG 1.1//EN"
  "http://www.w3.org/Graphics/SVG/1.1/DTD/svg11.dtd">
<svg xmlns:xlink="http://www.w3.org/1999/xlink" width="349.2pt" height="236.16pt" viewBox="0 0 349.2 236.16" xmlns="http://www.w3.org/2000/svg" version="1.1">
 <metadata>
  <rdf:RDF xmlns:dc="http://purl.org/dc/elements/1.1/" xmlns:cc="http://creativecommons.org/ns#" xmlns:rdf="http://www.w3.org/1999/02/22-rdf-syntax-ns#">
   <cc:Work>
    <dc:type rdf:resource="http://purl.org/dc/dcmitype/StillImage"/>
    <dc:date>2025-11-26T06:16:06.205343</dc:date>
    <dc:format>image/svg+xml</dc:format>
    <dc:creator>
     <cc:Agent>
      <dc:title>Matplotlib v3.10.0, https://matplotlib.org/</dc:title>
     </cc:Agent>
    </dc:creator>
   </cc:Work>
  </rdf:RDF>
 </metadata>
 <defs>
  <style type="text/css">*{stroke-linejoin: round; stroke-linecap: butt}</style>
 </defs>
 <g id="figure_1">
  <g id="patch_1">
   <path d="M 0 236.16 
L 349.2 236.16 
L 349.2 0 
L 0 0 
z
" style="fill: #ffffff"/>
  </g>
  <g id="axes_1">
   <g id="LineCollection_1">
    <path d="M 312.947107 26.443636 
L 178.008267 99.375882 
" clip-path="url(#p81cb037116)" style="fill: none; stroke: #000000; stroke-width: 2"/>
    <path d="M 312.947107 26.443636 
L 298.707599 143.202865 
" clip-path="url(#p81cb037116)" style="fill: none; stroke: #000000; stroke-width: 2"/>
    <path d="M 178.008267 99.375882 
L 298.707599 143.202865 
" clip-path="url(#p81cb037116)" style="fill: none; stroke: #000000; stroke-width: 2"/>
    <path d="M 178.008267 99.375882 
L 166.176163 209.716364 
" clip-path="url(#p81cb037116)" style="fill: none; stroke: #000000; stroke-width: 2"/>
    <path d="M 178.008267 99.375882 
L 36.252893 164.080059 
" clip-path="url(#p81cb037116)" style="fill: none; stroke: #000000; stroke-width: 2"/>
    <path d="M 298.707599 143.202865 
L 166.176163 209.716364 
" clip-path="url(#p81cb037116)" style="fill: none; stroke: #000000; stroke-width: 2"/>
    <path d="M 166.176163 209.716364 
L 36.252893 164.080059 
" clip-path="url(#p81cb037116)" style="fill: none; stroke: #000000; stroke-width: 2"/>
   </g>
   <g id="PathCollection_1">
    <defs>
     <path id="m7af073ca93" d="M 0 9.354143 
C 2.480748 9.354143 4.860225 8.368532 6.614378 6.614378 
C 8.368532 4.860225 9.354143 2.480748 9.354143 0 
C 9.354143 -2.480748 8.368532 -4.860225 6.614378 -6.614378 
C 4.860225 -8.368532 2.480748 -9.354143 0 -9.354143 
C -2.480748 -9.354143 -4.860225 -8.368532 -6.614378 -6.614378 
C -8.368532 -4.860225 -9.354143 -2.480748 -9.354143 0 
C -9.354143 2.480748 -8.368532 4.860225 -6.614378 6.614378 
C -4.860225 8.368532 -2.480748 9.354143 0 9.354143 
z
" style="stroke: #87ceeb"/>
    </defs>
    <g clip-path="url(#p81cb037116)">
     <use xlink:href="#m7af073ca93" x="312.947107" y="26.443636" style="fill: #87ceeb; stroke: #87ceeb"/>
     <use xlink:href="#m7af073ca93" x="178.008267" y="99.375882" style="fill: #87ceeb; stroke: #87ceeb"/>
     <use xlink:href="#m7af073ca93" x="298.707599" y="143.202865" style="fill: #87ceeb; stroke: #87ceeb"/>
     <use xlink:href="#m7af073ca93" x="166.176163" y="209.716364" style="fill: #87ceeb; stroke: #87ceeb"/>
     <use xlink:href="#m7af073ca93" x="36.252893" y="164.080059" style="fill: #87ceeb; stroke: #87ceeb"/>
    </g>
   </g>
   <g id="text_1">
    <g clip-path="url(#p81cb037116)">
     <!-- A -->
     <g transform="translate(308.30367 29.754886) scale(0.12 -0.12)">
      <defs>
       <path id="DejaVuSans-Bold-41" d="M 3419 850 
L 1538 850 
L 1241 0 
L 31 0 
L 1759 4666 
L 3194 4666 
L 4922 0 
L 3713 0 
L 3419 850 
z
M 1838 1716 
L 3116 1716 
L 2478 3572 
L 1838 1716 
z
" transform="scale(0.015625)"/>
      </defs>
      <use xlink:href="#DejaVuSans-Bold-41"/>
     </g>
    </g>
   </g>
   <g id="text_2">
    <g clip-path="url(#p81cb037116)">
     <!-- B -->
     <g transform="translate(173.435142 102.687132) scale(0.12 -0.12)">
      <defs>
       <path id="DejaVuSans-Bold-42" d="M 2456 2859 
Q 2741 2859 2887 2984 
Q 3034 3109 3034 3353 
Q 3034 3594 2887 3720 
Q 2741 3847 2456 3847 
L 1791 3847 
L 1791 2859 
L 2456 2859 
z
M 2497 819 
Q 2859 819 3042 972 
Q 3225 1125 3225 1434 
Q 3225 1738 3044 1889 
Q 2863 2041 2497 2041 
L 1791 2041 
L 1791 819 
L 2497 819 
z
M 3616 2497 
Q 4003 2384 4215 2081 
Q 4428 1778 4428 1338 
Q 4428 663 3972 331 
Q 3516 0 2584 0 
L 588 0 
L 588 4666 
L 2394 4666 
Q 3366 4666 3802 4372 
Q 4238 4078 4238 3431 
Q 4238 3091 4078 2852 
Q 3919 2613 3616 2497 
z
" transform="scale(0.015625)"/>
      </defs>
      <use xlink:href="#DejaVuSans-Bold-42"/>
     </g>
    </g>
   </g>
   <g id="text_3">
    <g clip-path="url(#p81cb037116)">
     <!-- E -->
     <g transform="translate(294.608849 146.514115) scale(0.12 -0.12)">
      <defs>
       <path id="DejaVuSans-Bold-45" d="M 588 4666 
L 3834 4666 
L 3834 3756 
L 1791 3756 
L 1791 2888 
L 3713 2888 
L 3713 1978 
L 1791 1978 
L 1791 909 
L 3903 909 
L 3903 0 
L 588 0 
L 588 4666 
z
" transform="scale(0.015625)"/>
      </defs>
      <use xlink:href="#DejaVuSans-Bold-45"/>
     </g>
    </g>
   </g>
   <g id="text_4">
    <g clip-path="url(#p81cb037116)">
     <!-- D -->
     <g transform="translate(161.195225 213.027614) scale(0.12 -0.12)">
      <defs>
       <path id="DejaVuSans-Bold-44" d="M 1791 3756 
L 1791 909 
L 2222 909 
Q 2959 909 3348 1275 
Q 3738 1641 3738 2338 
Q 3738 3031 3350 3393 
Q 2963 3756 2222 3756 
L 1791 3756 
z
M 588 4666 
L 1856 4666 
Q 2919 4666 3439 4514 
Q 3959 4363 4331 4000 
Q 4659 3684 4818 3271 
Q 4978 2859 4978 2338 
Q 4978 1809 4818 1395 
Q 4659 981 4331 666 
Q 3956 303 3431 151 
Q 2906 0 1856 0 
L 588 0 
L 588 4666 
z
" transform="scale(0.015625)"/>
      </defs>
      <use xlink:href="#DejaVuSans-Bold-44"/>
     </g>
    </g>
   </g>
   <g id="text_5">
    <g clip-path="url(#p81cb037116)">
     <!-- C -->
     <g transform="translate(31.849455 167.391309) scale(0.12 -0.12)">
      <defs>
       <path id="DejaVuSans-Bold-43" d="M 4288 256 
Q 3956 84 3597 -3 
Q 3238 -91 2847 -91 
Q 1681 -91 1000 561 
Q 319 1213 319 2328 
Q 319 3447 1000 4098 
Q 1681 4750 2847 4750 
Q 3238 4750 3597 4662 
Q 3956 4575 4288 4403 
L 4288 3438 
Q 3953 3666 3628 3772 
Q 3303 3878 2944 3878 
Q 2300 3878 1931 3465 
Q 1563 3053 1563 2328 
Q 1563 1606 1931 1193 
Q 2300 781 2944 781 
Q 3303 781 3628 887 
Q 3953 994 4288 1222 
L 4288 256 
z
" transform="scale(0.015625)"/>
      </defs>
      <use xlink:href="#DejaVuSans-Bold-43"/>
     </g>
    </g>
   </g>
  </g>
 </g>
 <defs>
  <clipPath id="p81cb037116">
   <rect x="7.2" y="7.2" width="334.8" height="221.76"/>
  </clipPath>
 </defs>
</svg>
